<?xml version="1.0" ?><!DOCTYPE svg  PUBLIC '-//W3C//DTD SVG 1.1//EN'  'http://www.w3.org/Graphics/SVG/1.1/DTD/svg11.dtd'><svg enable-background="new 0 0 64 64" height="64px" id="Layer_1" version="1.1" viewBox="0 0 64 64" width="64px" xml:space="preserve" xmlns="http://www.w3.org/2000/svg" xmlns:xlink="http://www.w3.org/1999/xlink"><g id="memory_card"><g><g><g><rect fill="#37474F" height="8" width="2" x="47" y="8"/></g><g><rect fill="#37474F" height="8" width="3" x="43" y="8"/></g><g><rect fill="#37474F" height="8" width="3" x="39" y="8"/></g><g><rect fill="#37474F" height="8" width="3" x="35" y="8"/></g><g><rect fill="#37474F" height="8" width="3" x="31" y="8"/></g><g><rect fill="#37474F" height="8" width="3" x="27" y="8"/></g><g><rect fill="#37474F" height="8" width="3" x="23" y="8"/></g><g><rect fill="#37474F" height="8" width="3" x="19" y="8"/></g><g><rect fill="#37474F" height="8" width="3" x="15" y="12"/></g></g><path d="M45,33c0.551,0,1,0.448,1,1v19c0,0.552-0.449,1-1,1H18c-0.551,0-1-0.448-1-1V34c0-0.552,0.449-1,1-1H45    L45,33z M45,32H18c-1.1,0-2,0.9-2,2v19c0,1.1,0.9,2,2,2h27c1.1,0,2-0.9,2-2V34C47,32.9,46.1,32,45,32L45,32z" fill="#37474F"/><rect fill="#37474F" height="1" width="25" x="19" y="50"/><path d="M53,26.236v-6.473l-1-0.5V4H19.586L11,12.586V23h2v2h-2v32c0,1.654,1.346,3,3,3h35c1.654,0,3-1.346,3-3V29    h-2v-1.264L53,26.236z M51,25l-2,1v-6l2,1V25z M50,31v26c0,0.552-0.449,1-1,1H14c-0.551,0-1-0.448-1-1V27h2v-6h-2v-7.586L20.414,6    H50v12h-2v13H50z" fill="#37474F"/></g></g></svg>